<?xml version="1.0" encoding="UTF-8"?>
<svg id="Layer_1" xmlns="http://www.w3.org/2000/svg" version="1.1" viewBox="0 0 832.0999756 251.6000061">
  <!-- Generator: Adobe Illustrator 29.0.0, SVG Export Plug-In . SVG Version: 2.1.0 Build 186)  -->
  <defs>
    <style>
      .st0 {
        fill: #fff;
      }
    </style>
  </defs>
  <path class="st0" d="M360.5537109,123.8858032h-27.0628967c-2.7345581,0-4.8379517.6405716-6.3140869,1.9232788-1.4768982,1.2842712-2.2145996,3.1558685-2.2145996,5.613205,0,2.3539734.7376709,4.2255707,2.2145996,5.613205,1.4761353,1.3907776,3.5795288,2.0861664,6.3140869,2.0861664h18.041687v26.3365784c-2.95755.8825531-5.961792,1.62677-9.0204468,2.2102814-4.4847717.8567047-8.913147,1.2826996-13.2851562,1.2826996-12.6860962,0-22.2523499-3.4205475-28.7034912-10.2647858-6.4526978-6.841095-9.6766663-16.8396301-9.6766663-29.9893188,0-8.6610031,1.3938904-15.9829254,4.1824951-21.9720154,2.7886047-5.9875259,6.9703064-10.5576553,12.5474854-13.7119522,5.576416-3.1527328,12.4088745-4.7314453,20.5013733-4.7314453,5.2490845,0,10.0055847.5356369,14.2695007,1.603775,4.2647095,1.0697021,8.473053,2.7815475,12.6297302,5.1323929,2.1856079,1.1777725,4.1824951,1.603775,5.9867554,1.2827072,1.8034668-.3210678,3.3054199-1.1229553,4.5098267-2.4056625,1.2020569-1.2827072,2.0219421-2.8066025,2.4604797-4.5716934.4353943-1.7635269.3539429-3.5004272-.2458801-5.212265-.6022034-1.7087097-1.832428-3.1511688-3.6907043-4.3289337-5.4683228-3.4205475-11.2914124-5.8544006-17.4676514-7.2984238-6.1785889-1.4424591-12.32901-2.1644669-18.4520264-2.1644669-9.2945251,0-17.6054993,1.3625793-24.9297485,4.0893097-7.3273926,2.7267303-13.5318298,6.6312332-18.6164551,11.7072372-5.0846252,5.0807037-8.9671936,11.201355-11.6445923,18.3635254-2.6813049,7.1652985-4.0188293,15.2358551-4.0188293,24.217926,0,11.8669891,2.2960205,22.1317596,6.888855,30.791214,4.592041,8.6610107,11.2890625,15.3439178,20.0917969,20.0471802,8.8003845,4.7063904,19.6000366,7.0572357,32.3934021,7.0572357,6.0118103,0,12.137146-.5606995,18.3697815-1.6836548s11.752655-2.5387878,16.5655518-4.2506256c2.0759888-.7470703,3.5802917-1.9248352,4.5106201-3.5286102.9279785-1.603775,1.3938904-3.580307,1.3938904-5.9327087v-38.9729614c0-2.6703491-.7376709-4.7298813-2.2138062-6.1739044s-3.5826416-2.1644669-6.3148499-2.1644669l-.0000305-.0000229Z"/>
  <path class="st0" d="M461.4230957,88.2817078c2.7314148,0,4.8379517-.7220078,6.3148499-2.1660309,1.4753418-1.4424591,2.2145996-3.5004272,2.2145996-6.1739044,0-2.5654144-.7392273-4.5435028-2.2145996-5.9342804-1.4768982-1.3876419-3.5834351-2.0845947-6.3148499-2.0845947h-58.5541992c-3.60849,0-6.3712463.9365768-8.2827759,2.8066025-1.9146729,1.8715897-2.8708191,4.5701294-2.8708191,8.0987473v91.2553711c0,3.5286102.9561462,6.228714,2.8708191,8.0987396,1.9115295,1.8715973,4.6742859,2.8066101,8.2827759,2.8066101h58.5541992c2.7314148,0,4.8379517-.6938171,6.3148499-2.0845947,1.4753418-1.3892059,2.2145996-3.4205475,2.2145996-6.0940247,0-2.6719055-.7392273-4.7048187-2.2145996-6.0955963-1.4768982-1.3876343-3.5834351-2.0845947-6.3148499-2.0845947h-49.5337524v-32.8773651h45.9252625c2.8426208,0,4.9742126-.6938171,6.3963013-2.0845947,1.4205322-1.3876343,2.1331482-3.4205475,2.1331482-6.0940247,0-2.6719131-.712616-4.7032547-2.1331482-6.0940247-1.4220886-1.3892059-3.5536804-2.0861588-6.3963013-2.0861588h-45.9252625v-31.1122742s49.5337524,0,49.5337524-.0000076Z"/>
  <path class="st0" d="M432.6381836,62.2203865c1.256073.9099541,2.6781921,1.3375206,4.2647095,1.2827072,1.5834045-.0532494,3.0336914-.7736969,4.3461609-2.1644669l15.744873-16.8396263c1.4205322-1.4972725,2.0767517-3.0196075,1.968689-4.5716934-.1096191-1.5489578-.6844177-2.9397316-1.7228088-4.1691856-1.0399475-1.22789-2.3774719-2.1378441-4.0172729-2.7267303-1.639801-.5857544-3.3093567-.693821-5.0024109-.3210678-1.6977539.375885-3.1448975,1.4706497-4.3461609,3.2874222l-12.7941589,18.4434013c-.983551,1.4988403-1.2858276,2.9428635-.9021301,4.3305016.3821411,1.3907738,1.2028198,2.5419197,2.4604797,3.4487419l.0000305-.0000038Z"/>
  <path class="st0" d="M546.3823853,79.2996368c-1.4221191-3.0994797-3.1433105-5.3171997-5.1652832-6.6547241-2.0250854-1.3359528-4.2929077-2.004715-6.8066406-2.004715-2.624939,0-4.9491577.6687622-6.9710693,2.004715-2.0250854,1.3375244-3.7463379,3.5552444-5.1668701,6.6547241l-43.3003235,93.8207855c-1.0947571,2.4620361-1.4753418,4.6797638-1.1480103,6.6562805.3273315,1.97966,1.2842712,3.5552368,2.8708191,4.7314453,1.5834045,1.1746368,3.6899414,1.7635193,6.3148499,1.7635193,2.8410645,0,5.0274658-.6969452,6.5591736-2.0845947,1.5301514-1.3876343,3.0070801-3.6335449,4.4291687-6.7361603l8.0635071-18.6031494h56.4050903l8.1898804,18.6031494c1.312439,2.9945526,2.8144531,5.212265,4.5106201,6.6562958,1.6946411,1.4424591,4.0720825,2.1644745,7.1355591,2.1644745,2.5137329,0,4.5356445-.5606995,6.0689697-1.6836548,1.5286255-1.1229553,2.4589233-2.6985321,2.7877808-4.7314453.3273315-2.0297699-.1096191-4.2741241-1.312439-6.7361603,0,0-43.4647827-93.8207779-43.4647827-93.8207855ZM534.081604,94.2159882h.3289185l20.9038086,48.2729645h-41.987854l20.755188-48.2729645h-.000061Z"/>
  <path class="st0" d="M693.9969482,70.6401978c-3.1730957,0-5.6054077.8567047-7.2984009,2.5654144-1.6977539,1.7118378-2.543457,4.1175003-2.543457,7.21698v70.4469147l-58.5534058-74.2950439c-1.7509766-2.1378403-3.2545166-3.6617432-4.5106201-4.5716934-1.2576294-.9068222-3.1448975-1.3625793-5.6586304-1.3625793-2.7345581,0-4.9491577.8817596-6.6422119,2.6452866-1.6977539,1.7650909-2.543457,4.3054428-2.543457,7.6179276v95.4245377c0,3.20755.8457642,5.6695862,2.543457,7.3782959,1.6930542,1.7087097,4.1253052,2.5654144,7.2984009,2.5654144,3.1699829,0,5.5756226-.8567047,7.21698-2.5654144,1.6397705-1.7087097,2.4604492-4.1707458,2.4604492-7.3782959v-70.6399536l58.5534058,74.4896393c1.7478638,2.1394043,3.3626099,3.6883698,4.8379517,4.6515656,1.4769287.9616394,3.4706421,1.4424591,5.9875488,1.4424591,2.6233521,0,4.7001343-.8567047,6.2318726-2.5654144,1.5301514-1.7087097,2.2960205-4.0626831,2.2960205-7.0572357v-96.2264328c0-3.0994797-.8190918-5.5051422-2.4589233-7.21698-1.6413574-1.7087097-4.0469971-2.5654144-7.21698-2.5654144v.0000229Z"/>
  <path class="st0" d="M814.7921143,74.0873718c-1.5865479-1.4424591-3.8011475-2.1644669-6.6437378-2.1644669h-84.9592896c-2.8457642,0-5.0587769.7220078-6.6437378,2.1644669-1.5865479,1.4440231-2.3774414,3.5568085-2.3774414,6.3352203,0,2.6734772.7908936,4.7862625,2.3774414,6.3352203,1.5849609,1.5505219,3.7979736,2.3257828,6.6437378,2.3257828h31.9830933v86.6037827c0,3.3156128.9020996,5.9092102,2.7063599,7.7776794,1.8042603,1.8700256,4.3994141,2.8066101,7.7902222,2.8066101,3.4988403,0,6.1221924-.9365845,7.87323-2.8066101,1.7478638-1.868454,2.6233521-4.4620667,2.6233521-7.7776794v-86.6037903h31.9830933c2.8426514,0,5.0571899-.7752609,6.6437378-2.3257828,1.5834351-1.5489578,2.3774414-3.6617432,2.3774414-6.3352203,0-2.7784119-.7940674-4.8911972-2.3774414-6.3352203l-.000061.0000076Z"/>
  <path class="st0" d="M227.854538,113.1817093h-24.4034271c-6.9565125,0-12.4168091,5.8343353-12.1085663,12.783989.0540314,1.216629.0701904,2.4430542.0473785,3.6784821-.5796814,31.2823029-26.3062439,56.8526306-57.5914764,57.2431946-8.9706192.1119843-17.4771576-1.8091431-25.099884-5.3226776-4.5641556-2.103775-9.9431229-1.233078-13.4967957,2.320694l-20.6095352,20.609436c-.3148041.3148041-.2815247.8388824.0730209,1.1079712,16.2240143,12.3135529,36.4520874,19.6255798,58.3907166,19.6255798,53.3951721,0,96.6803284-43.2853546,96.6803284-96.6804352,0-5.0166855-.4111176-9.9342194-1.1523285-14.743187-.0553131-.3586578-.3665924-.6230469-.7294464-.6230469h.0000153Z"/>
  <path class="st0" d="M108.3101425,75.7121887c7.5120163-3.5297928,15.8959961-5.5082703,24.7458267-5.5082703,8.6590424,0,16.8720245,1.8940048,24.2586517,5.2820587,4.4939728,2.0611954,9.7930603,1.1109161,13.2890778-2.3851013l21.2761383-21.2761383c-16.2965546-12.5134315-36.6893616-19.9572163-58.8238678-19.9572163-22.1533966,0-42.5622635,7.4564152-58.8657684,19.9892254l21.6138458,21.6138496c3.2899704,3.2898712,8.295105,4.2202835,12.5060959,2.2415924Z"/>
  <path class="st0" d="M78.0644608,91.1135712l-21.58321-21.5832062c-12.6032906,16.3283691-20.1057091,36.7953796-20.1057091,59.0175934,0,22.1345062,7.4437866,42.52742,19.957119,58.8239594l21.6222649-21.6222687c3.3383255-3.3384247,4.1526413-8.3939667,2.1626053-12.6752319-3.465477-7.4557343-5.4056931-15.7626801-5.4056931-24.5264587,0-8.8419952,1.9748611-17.2189331,5.4987793-24.7256622,2.0120621-4.2861633,1.2019501-9.3606033-2.1461563-12.708725Z"/>
  <circle class="st0" cx="133.0559692" cy="128.5479431" r="27.8896484"/>
  <circle class="st0" cx="41.3407094" cy="36.3406659" r="20.3406488"/>
  <circle class="st0" cx="41.3407136" cy="220.6537704" r="20.3408076"/>
</svg>